# This file uses centimeters as units for non-parametric coordinates.

mtllib baum.mtl
o baum1
v 0.802582 -0.032244 -0.181050
v 0.169557 -0.027615 -0.740743
v -0.632691 0.000000 -0.471985
v -0.801109 0.000000 0.357077
v -0.168260 0.000000 0.916743
v 0.632850 0.000000 0.648511
v 0.717640 1.944119 -0.240642
v 0.183891 1.971317 -0.805609
v -0.511532 2.172511 -0.595383
v -0.657668 1.911503 0.036999
v -0.110904 1.663050 0.464855
v 0.567948 1.906777 0.405696
v 0.000702 -0.015368 0.088053
v 0.391589 4.139584 -0.142966
v -0.002889 4.154819 -0.560564
v -0.605668 4.148313 -0.366273
v -0.830502 4.122452 0.244794
v -0.462575 4.084093 0.638571
v 0.157209 4.105502 0.451255
v 0.226368 6.468863 0.042950
v -0.123883 6.478745 -0.297281
v -0.588368 6.474309 -0.175877
v -0.716288 6.457274 0.287574
v -0.384790 6.442620 0.626110
v 0.092802 6.449941 0.504096
v 0.364617 9.195097 -0.032765
v 0.075506 9.195097 -0.287638
v -0.000419 9.195097 0.089234
v -0.288776 9.195097 -0.166336
v -0.365416 9.195097 0.211196
v -0.076749 9.195097 0.466480
v 0.288666 9.195097 0.344130
vt 0.578125 0.020934
vt 0.421875 0.020934
vt 0.343750 0.156250
vt 0.421875 0.291566
vt 0.578125 0.291566
vt 0.656250 0.156250
vt 0.375000 0.312500
vt 0.416667 0.312500
vt 0.458333 0.312500
vt 0.500000 0.312500
vt 0.541667 0.312500
vt 0.583333 0.312500
vt 0.625000 0.312500
vt 0.375000 0.688440
vt 0.416667 0.688440
vt 0.458333 0.688440
vt 0.500000 0.688440
vt 0.541667 0.688440
vt 0.583333 0.688440
vt 0.625000 0.688440
vt 0.578125 0.708434
vt 0.421875 0.708434
vt 0.343750 0.843750
vt 0.421875 0.979066
vt 0.578125 0.979066
vt 0.656250 0.843750
vt 0.500000 0.150000
vt 0.500000 0.837500
vt 0.578125 0.979066
vt 0.421875 0.979066
vt 0.343750 0.843750
vt 0.421875 0.708434
vt 0.578125 0.708434
vt 0.656250 0.843750
vt 0.578125 0.979066
vt 0.421875 0.979066
vt 0.343750 0.843750
vt 0.421875 0.708434
vt 0.578125 0.708434
vt 0.656250 0.843750
vt 0.578125 0.979066
vt 0.421875 0.979066
vt 0.343750 0.843750
vt 0.421875 0.708434
vt 0.578125 0.708434
vt 0.656250 0.843750
vn 0.693813 -0.010221 -0.720083
vn 0.693813 -0.010221 -0.720083
vn 0.693813 -0.010221 -0.720083
vn 0.693813 -0.010221 -0.720083
vn -0.309006 -0.032860 -0.950492
vn -0.309006 -0.032860 -0.950492
vn -0.309006 -0.032860 -0.950492
vn -0.309006 -0.032860 -0.950492
vn -0.978270 0.041319 -0.203179
vn -0.978270 0.041319 -0.203179
vn -0.978270 0.041319 -0.203179
vn -0.978270 0.041319 -0.203179
vn -0.603695 0.200543 0.771580
vn -0.603695 0.200543 0.771580
vn -0.603695 0.200543 0.771580
vn -0.603695 0.200543 0.771580
vn 0.182489 0.188185 0.965031
vn 0.182489 0.188185 0.965031
vn 0.182489 0.188185 0.965031
vn 0.182489 0.188185 0.965031
vn 0.975901 0.054121 0.211397
vn 0.975901 0.054121 0.211398
vn 0.975901 0.054121 0.211397
vn 0.975901 0.054121 0.211397
vn -0.024438 -0.999653 0.009794
vn -0.012929 -0.999624 0.024163
vn -0.014219 -0.999791 0.014692
vn -0.026090 -0.999657 0.002077
vn -0.017228 -0.999835 0.005768
vn -0.003625 -0.999835 0.017802
vn -0.000965 -0.999593 0.028496
vn -0.000001 1.000000 0.000001
vn -0.000002 1.000000 0.000002
vn -0.000000 1.000000 0.000000
vn -0.000001 1.000000 0.000001
vn 0.000001 1.000000 -0.000001
vn 0.000001 1.000000 -0.000001
vn 0.000000 1.000000 0.000000
vn 0.722962 0.137656 -0.677036
vn 0.722962 0.137656 -0.677036
vn 0.722962 0.137656 -0.677036
vn 0.722962 0.137656 -0.677036
vn -0.284013 0.089643 -0.954621
vn -0.284013 0.089643 -0.954621
vn -0.284013 0.089643 -0.954621
vn -0.284013 0.089643 -0.954621
vn -0.955872 -0.030459 -0.292201
vn -0.955872 -0.030459 -0.292201
vn -0.955872 -0.030459 -0.292201
vn -0.955872 -0.030459 -0.292201
vn -0.685344 -0.136521 0.715308
vn -0.685344 -0.136521 0.715308
vn -0.685344 -0.136521 0.715308
vn -0.685344 -0.136521 0.715308
vn 0.189466 -0.015331 0.981768
vn 0.189466 -0.015331 0.981768
vn 0.189466 -0.015331 0.981768
vn 0.189466 -0.015331 0.981768
vn 0.942274 0.148207 0.300257
vn 0.942274 0.148207 0.300257
vn 0.942274 0.148207 0.300257
vn 0.942274 0.148207 0.300257
vn 0.710687 0.110780 -0.694731
vn 0.710687 0.110780 -0.694731
vn 0.710687 0.110780 -0.694731
vn 0.710687 0.110780 -0.694731
vn -0.283396 0.086862 -0.955061
vn -0.283396 0.086862 -0.955061
vn -0.283396 0.086862 -0.955061
vn -0.283396 0.086862 -0.955061
vn -0.949759 0.042314 -0.310108
vn -0.949759 0.042314 -0.310108
vn -0.949759 0.042314 -0.310108
vn -0.949759 0.042314 -0.310108
vn -0.722025 0.025071 0.691413
vn -0.722025 0.025071 0.691413
vn -0.722025 0.025071 0.691413
vn -0.722025 0.025071 0.691413
vn 0.271517 -0.009035 0.962391
vn 0.271517 -0.009035 0.962391
vn 0.271517 -0.009035 0.962391
vn 0.271517 -0.009035 0.962391
vn 0.943386 0.029472 0.330385
vn 0.943386 0.029472 0.330385
vn 0.943386 0.029472 0.330385
vn 0.943386 0.029472 0.330385
vn 0.680005 -0.051064 -0.731427
vn 0.680005 -0.051064 -0.731427
vn 0.680005 -0.051064 -0.731427
vn 0.680005 -0.051064 -0.731427
vn -0.281072 0.029179 -0.959243
vn -0.281072 0.029179 -0.959243
vn -0.281072 0.029179 -0.959243
vn -0.281072 0.029179 -0.959243
vn -0.966046 0.112268 -0.232705
vn -0.966046 0.112268 -0.232705
vn -0.966046 0.112268 -0.232705
vn -0.966046 0.112268 -0.232705
vn -0.685757 0.113206 0.718973
vn -0.685757 0.113206 0.718973
vn -0.685757 0.113206 0.718973
vn -0.685757 0.113206 0.718973
vn 0.278040 0.030328 0.960091
vn 0.278040 0.030328 0.960091
vn 0.278040 0.030328 0.960091
vn 0.278040 0.030328 0.960091
vn 0.969243 -0.048797 0.241217
vn 0.969243 -0.048797 0.241217
vn 0.969244 -0.048797 0.241217
vn 0.969243 -0.048797 0.241217
usemtl lambert3SG
f 1/7/1 2/8/2 8/15/3 7/14/4
f 2/8/5 3/9/6 9/16/7 8/15/8
f 3/9/9 4/10/10 10/17/11 9/16/12
f 4/10/13 5/11/14 11/18/15 10/17/16
f 5/11/17 6/12/18 12/19/19 11/18/20
f 6/12/21 1/13/22 7/20/23 12/19/24
f 2/2/25 1/1/26 13/27/27
f 3/3/28 2/2/25 13/27/27
f 4/4/29 3/3/28 13/27/27
f 5/5/30 4/4/29 13/27/27
f 6/6/31 5/5/30 13/27/27
f 1/1/26 6/6/31 13/27/27
f 26/41/32 27/42/33 28/28/34
f 27/42/33 29/43/35 28/28/34
f 29/43/35 30/44/36 28/28/34
f 30/44/36 31/45/37 28/28/34
f 31/45/37 32/46/38 28/28/34
f 32/46/38 26/41/32 28/28/34
f 7/25/39 8/24/40 15/30/41 14/29/42
f 8/24/43 9/23/44 16/31/45 15/30/46
f 9/23/47 10/22/48 17/32/49 16/31/50
f 10/22/51 11/21/52 18/33/53 17/32/54
f 11/21/55 12/26/56 19/34/57 18/33/58
f 12/26/59 7/25/60 14/29/61 19/34/62
f 14/29/63 15/30/64 21/36/65 20/35/66
f 15/30/67 16/31/68 22/37/69 21/36/70
f 16/31/71 17/32/72 23/38/73 22/37/74
f 17/32/75 18/33/76 24/39/77 23/38/78
f 18/33/79 19/34/80 25/40/81 24/39/82
f 19/34/83 14/29/84 20/35/85 25/40/86
f 20/35/87 21/36/88 27/42/89 26/41/90
f 21/36/91 22/37/92 29/43/93 27/42/94
f 22/37/95 23/38/96 30/44/97 29/43/98
f 23/38/99 24/39/100 31/45/101 30/44/102
f 24/39/103 25/40/104 32/46/105 31/45/106
f 25/40/107 20/35/108 26/41/109 32/46/110
o baum2
v -0.198463 10.807882 -3.857910
v 3.693165 13.429025 -1.989831
v -0.720508 14.901782 -2.647943
v -4.321201 12.510829 -2.666956
v -2.755752 8.567954 -0.626758
v 1.290831 9.655228 -0.026833
v 2.236175 12.564755 2.619993
v 1.214173 17.018773 0.918298
v -3.853543 16.457066 0.270603
v -4.172864 11.901649 1.595469
v -1.100743 9.609380 3.505669
v -1.589233 14.288161 4.097498
v -0.329728 13.284316 -4.475728
v 1.959925 11.950210 -3.429790
v 1.490602 14.650011 -2.875230
v -2.308764 11.619422 -3.404646
v -2.878014 14.345251 -3.729392
v -1.679719 8.743407 -2.998213
v -3.530469 10.520730 -1.636718
v 0.800751 9.892055 -1.971080
v -0.392289 7.714684 -0.469150
v 3.475584 10.724163 -1.191843
v 2.673419 15.455283 -0.553500
v 0.307108 16.504688 -1.426266
v -2.069689 15.639893 -1.463454
v -4.252131 14.475520 -1.335608
v -4.697471 12.126967 -0.386034
v -4.567176 9.530141 0.772787
v -1.850510 9.358728 1.322705
v 0.468393 8.966996 1.899469
v 3.318595 10.114695 1.895655
v 4.152008 13.084797 0.742013
v 2.209476 14.908646 2.137414
v -1.390128 17.381776 0.669861
v -4.732053 14.136077 1.235411
v -2.832590 10.816897 2.525901
v 1.072017 10.755987 3.878868
v 0.690714 13.563995 4.004516
v -0.198323 15.865813 2.814134
v -2.928632 15.729766 2.594909
v -3.214472 13.019215 2.977083
v -1.411212 11.846397 4.351228
vt 1.000000 0.500000
vt 0.838104 0.676208
vt 0.088104 0.823792
vt 0.176208 0.500000
vt 0.088104 0.176208
vt 0.838104 0.323792
vt 0.676208 0.500000
vt 0.588104 0.823792
vt 0.338104 0.676208
vt 0.338104 0.323792
vt 0.588104 0.176208
vt 0.500000 0.500000
vt 0.030034 0.666667
vt 0.926208 0.600000
vt 0.926208 0.800000
vt 0.088104 0.500000
vt 0.146174 0.666667
vt 0.030034 0.333333
vt 0.146174 0.333333
vt 0.926208 0.400000
vt 0.926208 0.200000
vt 0.838104 0.500000
vt 0.750000 0.800000
vt 0.250000 1.000000
vt 0.250000 0.800000
vt 0.250000 0.600000
vt 0.250000 0.400000
vt 0.250000 0.200000
vt 0.750000 1.000000
vt 0.750000 0.200000
vt 0.750000 0.400000
vt 0.750000 0.600000
vt 0.646174 0.666667
vt 0.426208 0.800000
vt 0.338104 0.500000
vt 0.426208 0.200000
vt 0.646174 0.333333
vt 0.588104 0.500000
vt 0.530034 0.666667
vt 0.426208 0.600000
vt 0.426208 0.400000
vt 0.530034 0.333333
vt 1.030034 0.666667
vt 1.088104 0.823792
vt 1.088104 0.500000
vt 1.030034 0.333333
vt 1.088104 0.176208
vt 1.250000 1.000000
vn 0.298734 -0.216070 -0.929555
vn 0.298734 -0.216070 -0.929555
vn 0.298734 -0.216070 -0.929555
vn 0.017577 0.750625 -0.660495
vn 0.017577 0.750625 -0.660495
vn 0.017577 0.750625 -0.660495
vn 0.521688 0.257741 -0.813272
vn 0.521688 0.257741 -0.813272
vn 0.521688 0.257741 -0.813272
vn 0.479279 0.255770 -0.839567
vn 0.479279 0.255770 -0.839567
vn 0.479279 0.255770 -0.839567
vn -0.293053 -0.246027 -0.923899
vn -0.293053 -0.246027 -0.923899
vn -0.293053 -0.246027 -0.923899
vn -0.411652 -0.192102 -0.890865
vn -0.411652 -0.192102 -0.890865
vn -0.411652 -0.192102 -0.890865
vn -0.345345 -0.181809 -0.920697
vn -0.345345 -0.181809 -0.920697
vn -0.345345 -0.181809 -0.920697
vn 0.126769 0.756132 -0.642023
vn 0.126769 0.756132 -0.642023
vn 0.126769 0.756132 -0.642023
vn -0.276599 -0.193520 -0.941299
vn -0.276599 -0.193520 -0.941299
vn -0.276599 -0.193520 -0.941299
vn -0.770751 -0.506014 -0.387161
vn -0.770751 -0.506014 -0.387161
vn -0.770751 -0.506014 -0.387161
vn -0.717553 -0.248875 -0.650522
vn -0.717553 -0.248875 -0.650522
vn -0.717553 -0.248875 -0.650522
vn -0.490792 -0.546353 -0.678691
vn -0.490791 -0.546353 -0.678691
vn -0.490792 -0.546353 -0.678691
vn 0.527588 -0.620259 -0.580457
vn 0.527588 -0.620259 -0.580457
vn 0.527588 -0.620259 -0.580457
vn 0.757640 -0.597029 -0.263700
vn 0.757640 -0.597029 -0.263700
vn 0.757640 -0.597029 -0.263700
vn 0.527277 -0.658943 -0.536444
vn 0.527277 -0.658944 -0.536444
vn 0.527277 -0.658944 -0.536444
vn -0.319165 -0.923420 -0.213139
vn -0.319165 -0.923421 -0.213139
vn -0.319165 -0.923421 -0.213139
vn 0.469054 -0.671090 -0.574131
vn 0.469054 -0.671090 -0.574131
vn 0.469054 -0.671090 -0.574131
vn 0.734819 -0.245628 -0.632225
vn 0.734819 -0.245628 -0.632225
vn 0.734819 -0.245628 -0.632225
vn 0.392070 -0.668629 -0.631836
vn 0.392070 -0.668629 -0.631836
vn 0.392070 -0.668629 -0.631836
vn 0.343373 -0.918010 -0.198375
vn 0.343373 -0.918010 -0.198375
vn 0.343373 -0.918010 -0.198375
vn 0.564652 0.647207 -0.512143
vn 0.564652 0.647207 -0.512143
vn 0.564652 0.647207 -0.512143
vn -0.011810 0.610910 -0.791612
vn -0.011810 0.610910 -0.791612
vn -0.011810 0.610910 -0.791612
vn 0.498462 0.708433 -0.499658
vn 0.498462 0.708433 -0.499658
vn 0.498462 0.708433 -0.499658
vn 0.486286 0.795074 -0.362467
vn 0.486286 0.795074 -0.362467
vn 0.486286 0.795074 -0.362467
vn 0.029894 0.863254 -0.503883
vn 0.029894 0.863254 -0.503883
vn 0.029894 0.863254 -0.503883
vn -0.802820 0.353549 -0.480087
vn -0.802820 0.353549 -0.480087
vn -0.802820 0.353549 -0.480087
vn -0.461578 0.831100 -0.310190
vn -0.461578 0.831100 -0.310190
vn -0.461578 0.831100 -0.310190
vn -0.375038 0.628092 -0.681796
vn -0.375038 0.628093 -0.681796
vn -0.375038 0.628092 -0.681796
vn -0.862542 -0.456114 -0.219049
vn -0.862542 -0.456114 -0.219049
vn -0.862542 -0.456114 -0.219049
vn -0.676286 -0.531884 -0.509644
vn -0.676286 -0.531884 -0.509644
vn -0.676286 -0.531884 -0.509644
vn -0.847313 -0.251302 -0.467877
vn -0.847313 -0.251302 -0.467877
vn -0.847313 -0.251302 -0.467877
vn -0.962430 0.068913 0.262641
vn -0.962430 0.068913 0.262641
vn -0.962430 0.068913 0.262641
vn -0.325863 -0.813688 0.481378
vn -0.325863 -0.813688 0.481378
vn -0.325863 -0.813688 0.481378
vn 0.743825 -0.663506 0.080519
vn 0.743825 -0.663506 0.080519
vn 0.743825 -0.663506 0.080519
vn -0.267024 -0.808471 0.524475
vn -0.267024 -0.808471 0.524475
vn -0.267024 -0.808471 0.524475
vn -0.207559 -0.961208 0.181656
vn -0.207559 -0.961208 0.181656
vn -0.207559 -0.961208 0.181656
vn 0.362251 -0.917763 -0.162746
vn 0.362251 -0.917763 -0.162746
vn 0.362251 -0.917763 -0.162746
vn 0.974767 -0.131605 -0.180306
vn 0.974767 -0.131605 -0.180306
vn 0.974767 -0.131605 -0.180306
vn 0.962323 -0.271868 -0.004735
vn 0.962323 -0.271868 -0.004735
vn 0.962323 -0.271868 -0.004735
vn 0.684865 0.088748 0.723245
vn 0.684865 0.088748 0.723245
vn 0.684865 0.088748 0.723245
vn 0.865293 0.494340 -0.083046
vn 0.865293 0.494340 -0.083046
vn 0.865293 0.494340 -0.083046
vn 0.813441 0.526503 0.247201
vn 0.813441 0.526503 0.247201
vn 0.813441 0.526503 0.247201
vn 0.752604 0.607832 0.253234
vn 0.752604 0.607832 0.253234
vn 0.752604 0.607832 0.253234
vn 0.669236 0.157148 0.726242
vn 0.669236 0.157148 0.726242
vn 0.669236 0.157148 0.726242
vn -0.236702 0.680375 -0.693586
vn -0.236702 0.680375 -0.693586
vn -0.236702 0.680375 -0.693586
vn -0.202239 0.789159 -0.579937
vn -0.202239 0.789159 -0.579937
vn -0.202239 0.789159 -0.579937
vn -0.277187 0.785607 -0.553163
vn -0.277188 0.785607 -0.553163
vn -0.277187 0.785607 -0.553163
vn 0.158114 0.949942 -0.269462
vn 0.158114 0.949942 -0.269462
vn 0.158114 0.949942 -0.269462
vn -0.981629 0.129476 -0.140144
vn -0.981629 0.129476 -0.140144
vn -0.981629 0.129476 -0.140144
vn -0.952312 -0.201388 0.229227
vn -0.952312 -0.201388 0.229227
vn -0.952312 -0.201388 0.229227
vn -0.978843 0.118035 -0.167133
vn -0.978843 0.118035 -0.167133
vn -0.978843 0.118035 -0.167133
vn -0.943948 0.300539 -0.136524
vn -0.943948 0.300539 -0.136524
vn -0.943948 0.300539 -0.136524
vn -0.143001 -0.892237 0.428327
vn -0.143001 -0.892237 0.428327
vn -0.143001 -0.892237 0.428327
vn -0.654638 -0.691990 0.304300
vn -0.654638 -0.691990 0.304300
vn -0.654638 -0.691990 0.304300
vn -0.184333 -0.696426 0.693550
vn -0.184333 -0.696426 0.693550
vn -0.184333 -0.696426 0.693550
vn -0.644084 -0.152917 0.749515
vn -0.644084 -0.152917 0.749515
vn -0.644084 -0.152917 0.749515
vn 0.367923 -0.914265 -0.169565
vn 0.367923 -0.914265 -0.169565
vn 0.367923 -0.914265 -0.169565
vn 0.672358 0.079466 0.735949
vn 0.672358 0.079466 0.735949
vn 0.672358 0.079466 0.735949
vn 0.303242 -0.751123 0.586394
vn 0.303242 -0.751123 0.586394
vn 0.303242 -0.751123 0.586394
vn 0.295526 -0.751845 0.589400
vn 0.295526 -0.751845 0.589400
vn 0.295526 -0.751845 0.589400
vn 0.711622 0.149445 0.686484
vn 0.711622 0.149445 0.686484
vn 0.711622 0.149445 0.686484
vn 0.427758 0.594924 0.680507
vn 0.427758 0.594924 0.680507
vn 0.427758 0.594924 0.680507
vn 0.419635 0.539555 0.729922
vn 0.419635 0.539555 0.729922
vn 0.419635 0.539555 0.729922
vn 0.195881 0.509091 0.838127
vn 0.195881 0.509091 0.838127
vn 0.195881 0.509091 0.838127
vn 0.063142 0.831122 0.552494
vn 0.063142 0.831122 0.552494
vn 0.063142 0.831122 0.552494
vn -0.378032 0.829986 0.410141
vn -0.378032 0.829986 0.410141
vn -0.378032 0.829986 0.410141
vn -0.088102 0.789632 0.607223
vn -0.088102 0.789632 0.607223
vn -0.088102 0.789632 0.607223
vn -0.092383 0.676092 0.731002
vn -0.092383 0.676092 0.731002
vn -0.092383 0.676092 0.731002
vn -0.757386 0.473556 0.449567
vn -0.757386 0.473556 0.449567
vn -0.757386 0.473556 0.449567
vn -0.780037 -0.095564 0.618393
vn -0.780037 -0.095564 0.618393
vn -0.780037 -0.095564 0.618393
vn -0.685408 0.172040 0.707543
vn -0.685408 0.172040 0.707543
vn -0.685408 0.172040 0.707543
vn -0.646984 0.172935 0.742634
vn -0.646984 0.172935 0.742634
vn -0.646984 0.172935 0.742634
vn -0.683238 -0.258387 0.682951
vn -0.683238 -0.258387 0.682951
vn -0.683238 -0.258387 0.682951
vn -0.633811 -0.348899 0.690329
vn -0.633811 -0.348899 0.690329
vn -0.633811 -0.348899 0.690329
vn -0.686191 -0.258299 0.680018
vn -0.686191 -0.258299 0.680018
vn -0.686191 -0.258299 0.680018
vn -0.588599 0.040985 0.807386
vn -0.588599 0.040985 0.807386
vn -0.588599 0.040985 0.807386
vn 0.024170 -0.350530 0.936240
vn 0.024170 -0.350530 0.936240
vn 0.024170 -0.350530 0.936240
vn 0.687609 0.060996 0.723515
vn 0.687609 0.060996 0.723515
vn 0.687609 0.060996 0.723515
vn 0.178440 -0.019789 0.983752
vn 0.178440 -0.019789 0.983752
vn 0.178440 -0.019789 0.983752
vn 0.074878 0.108465 0.991276
vn 0.074878 0.108465 0.991276
vn 0.074878 0.108465 0.991276
usemtl lambert2SG
f 33/47/111 45/89/112 46/60/113
f 45/89/114 35/90/115 47/61/116
f 45/89/117 47/61/118 46/60/119
f 46/60/120 47/61/121 34/48/122
f 33/47/123 48/91/124 45/89/125
f 48/62/126 36/50/127 49/63/128
f 48/62/129 49/63/130 45/59/131
f 45/59/132 49/63/133 35/49/134
f 33/47/135 50/92/136 48/91/137
f 50/64/138 37/51/139 51/65/140
f 50/64/141 51/65/142 48/62/143
f 48/62/144 51/65/145 36/50/146
f 33/47/147 52/66/148 50/92/149
f 52/66/150 38/52/151 53/67/152
f 52/66/153 53/67/154 50/92/155
f 50/92/156 53/67/157 37/93/158
f 33/47/159 46/60/160 52/66/161
f 46/60/162 34/48/163 54/68/164
f 46/60/165 54/68/166 52/66/167
f 52/66/168 54/68/169 38/52/170
f 34/48/171 47/61/172 55/69/173
f 47/61/174 35/90/175 56/94/176
f 47/61/177 56/94/178 55/69/179
f 55/69/180 56/70/181 40/54/182
f 35/49/183 49/63/184 57/71/185
f 49/63/186 36/50/187 58/72/188
f 49/63/189 58/72/190 57/71/191
f 57/71/192 58/72/193 41/55/194
f 36/50/195 51/65/196 59/73/197
f 51/65/198 37/51/199 60/74/200
f 51/65/201 60/74/202 59/73/203
f 59/73/204 60/74/205 42/56/206
f 37/93/207 53/67/208 61/75/209
f 53/67/210 38/52/211 62/76/212
f 53/67/213 62/76/214 61/75/215
f 61/75/216 62/76/217 43/57/218
f 38/52/219 54/68/220 63/77/221
f 54/68/222 34/48/223 64/78/224
f 54/68/225 64/78/226 63/77/227
f 63/77/228 64/78/229 39/53/230
f 34/48/231 55/69/232 64/78/233
f 55/69/234 40/54/235 65/79/236
f 55/69/237 65/79/238 64/78/239
f 64/78/240 65/79/241 39/53/242
f 35/49/243 57/71/244 56/70/245
f 57/71/246 41/55/247 66/80/248
f 57/71/249 66/80/250 56/70/251
f 56/70/252 66/80/253 40/54/254
f 36/50/255 59/73/256 58/72/257
f 59/73/258 42/56/259 67/81/260
f 59/73/261 67/81/262 58/72/263
f 58/72/264 67/81/265 41/55/266
f 37/93/267 61/75/268 60/74/269
f 61/75/270 43/57/271 68/82/272
f 61/75/273 68/82/274 60/74/275
f 60/74/276 68/82/277 42/56/278
f 38/52/279 63/77/280 62/76/281
f 63/77/282 39/53/283 69/83/284
f 63/77/285 69/83/286 62/76/287
f 62/76/288 69/83/289 43/57/290
f 39/53/291 65/79/292 70/84/293
f 65/79/294 40/54/295 71/85/296
f 65/79/297 71/85/298 70/84/299
f 70/84/300 71/85/301 44/58/302
f 40/54/303 66/80/304 71/85/305
f 66/80/306 41/55/307 72/86/308
f 66/80/309 72/86/310 71/85/311
f 71/85/312 72/86/313 44/58/314
f 41/55/315 67/81/316 72/86/317
f 67/81/318 42/56/319 73/87/320
f 67/81/321 73/87/322 72/86/323
f 72/86/324 73/87/325 44/58/326
f 42/56/327 68/82/328 73/87/329
f 68/82/330 43/57/331 74/88/332
f 68/82/333 74/88/334 73/87/335
f 73/87/336 74/88/337 44/58/338
f 43/57/339 69/83/340 74/88/341
f 69/83/342 39/53/343 70/84/344
f 69/83/345 70/84/346 74/88/347
f 74/88/348 70/84/349 44/58/350
